<mxfile host="app.diagrams.net" modified="2021-11-06T13:18:36.638Z" agent="5.0 (Windows NT 10.0; Win64; x64) AppleWebKit/537.36 (KHTML, like Gecko) Chrome/79.0.3945.130 Safari/537.36" etag="UqMtBRDiYAZG6a-bpVuX" version="15.5.5" type="github">
  <diagram id="C5RBs43oDa-KdzZeNtuy" name="Page-1">
    <mxGraphModel dx="1422" dy="762" grid="0" gridSize="10" guides="1" tooltips="1" connect="1" arrows="1" fold="1" page="1" pageScale="1" pageWidth="827" pageHeight="1169" math="0" shadow="0">
      <root>
        <mxCell id="WIyWlLk6GJQsqaUBKTNV-0" />
        <mxCell id="WIyWlLk6GJQsqaUBKTNV-1" parent="WIyWlLk6GJQsqaUBKTNV-0" />
        <mxCell id="OiPHyQ5rAF06rbVgizBV-43" value="" style="rounded=0;whiteSpace=wrap;html=1;dashed=1;" vertex="1" parent="WIyWlLk6GJQsqaUBKTNV-1">
          <mxGeometry x="102" y="639" width="600" height="100" as="geometry" />
        </mxCell>
        <mxCell id="OiPHyQ5rAF06rbVgizBV-44" style="edgeStyle=orthogonalEdgeStyle;rounded=0;orthogonalLoop=1;jettySize=auto;html=1;entryX=0.5;entryY=0;entryDx=0;entryDy=0;" edge="1" parent="WIyWlLk6GJQsqaUBKTNV-1" source="OiPHyQ5rAF06rbVgizBV-45" target="OiPHyQ5rAF06rbVgizBV-49">
          <mxGeometry relative="1" as="geometry">
            <Array as="points">
              <mxPoint x="132" y="429" />
              <mxPoint x="442" y="429" />
            </Array>
          </mxGeometry>
        </mxCell>
        <mxCell id="OiPHyQ5rAF06rbVgizBV-45" value="&lt;font style=&quot;vertical-align: inherit&quot;&gt;&lt;font style=&quot;vertical-align: inherit&quot;&gt;&lt;font style=&quot;vertical-align: inherit&quot;&gt;&lt;font style=&quot;vertical-align: inherit ; font-size: 16px&quot;&gt;目标集&lt;/font&gt;&lt;/font&gt;&lt;/font&gt;&lt;/font&gt;" style="shape=card;whiteSpace=wrap;html=1;size=20;" vertex="1" parent="WIyWlLk6GJQsqaUBKTNV-1">
          <mxGeometry x="82" y="454" width="80" height="50" as="geometry" />
        </mxCell>
        <mxCell id="OiPHyQ5rAF06rbVgizBV-46" value="" style="edgeStyle=orthogonalEdgeStyle;rounded=0;orthogonalLoop=1;jettySize=auto;html=1;endArrow=classicThin;endFill=1;" edge="1" parent="WIyWlLk6GJQsqaUBKTNV-1" source="OiPHyQ5rAF06rbVgizBV-47" target="OiPHyQ5rAF06rbVgizBV-49">
          <mxGeometry relative="1" as="geometry" />
        </mxCell>
        <mxCell id="OiPHyQ5rAF06rbVgizBV-47" value="&lt;span style=&quot;font-size: 17px&quot;&gt;图抽取器&lt;/span&gt;" style="rounded=1;whiteSpace=wrap;html=1;fillColor=#e1d5e7;strokeColor=#9673a6;" vertex="1" parent="WIyWlLk6GJQsqaUBKTNV-1">
          <mxGeometry x="212" y="454" width="110" height="50" as="geometry" />
        </mxCell>
        <mxCell id="OiPHyQ5rAF06rbVgizBV-48" style="edgeStyle=orthogonalEdgeStyle;rounded=0;orthogonalLoop=1;jettySize=auto;html=1;entryX=-0.02;entryY=0.569;entryDx=0;entryDy=0;entryPerimeter=0;" edge="1" parent="WIyWlLk6GJQsqaUBKTNV-1" source="OiPHyQ5rAF06rbVgizBV-49" target="OiPHyQ5rAF06rbVgizBV-50">
          <mxGeometry relative="1" as="geometry" />
        </mxCell>
        <mxCell id="OiPHyQ5rAF06rbVgizBV-49" value="&lt;span style=&quot;font-size: 17px&quot;&gt;目标序列生成器&lt;/span&gt;" style="rounded=1;whiteSpace=wrap;html=1;fillColor=#e1d5e7;strokeColor=#9673a6;" vertex="1" parent="WIyWlLk6GJQsqaUBKTNV-1">
          <mxGeometry x="382" y="439" width="120" height="80" as="geometry" />
        </mxCell>
        <mxCell id="OiPHyQ5rAF06rbVgizBV-50" value="&lt;span style=&quot;font-size: 17px&quot;&gt;目标序列集&lt;/span&gt;" style="shape=card;whiteSpace=wrap;html=1;fillColor=#f5f5f5;strokeColor=#666666;fontColor=#333333;" vertex="1" parent="WIyWlLk6GJQsqaUBKTNV-1">
          <mxGeometry x="572" y="439" width="100" height="70" as="geometry" />
        </mxCell>
        <mxCell id="OiPHyQ5rAF06rbVgizBV-51" style="edgeStyle=orthogonalEdgeStyle;rounded=0;orthogonalLoop=1;jettySize=auto;html=1;" edge="1" parent="WIyWlLk6GJQsqaUBKTNV-1" source="OiPHyQ5rAF06rbVgizBV-52" target="OiPHyQ5rAF06rbVgizBV-53">
          <mxGeometry relative="1" as="geometry" />
        </mxCell>
        <mxCell id="OiPHyQ5rAF06rbVgizBV-52" value="&lt;font style=&quot;font-size: 17px&quot;&gt;插桩器&lt;/font&gt;" style="rounded=1;whiteSpace=wrap;html=1;fillColor=#e1d5e7;strokeColor=#9673a6;" vertex="1" parent="WIyWlLk6GJQsqaUBKTNV-1">
          <mxGeometry x="302" y="569" width="136" height="40" as="geometry" />
        </mxCell>
        <mxCell id="OiPHyQ5rAF06rbVgizBV-53" value="&lt;span style=&quot;font-size: 17px&quot;&gt;插桩二进制程序&lt;/span&gt;" style="shape=card;whiteSpace=wrap;html=1;size=20;fillColor=#f5f5f5;strokeColor=#666666;fontColor=#333333;" vertex="1" parent="WIyWlLk6GJQsqaUBKTNV-1">
          <mxGeometry x="557" y="559" width="130" height="60" as="geometry" />
        </mxCell>
        <mxCell id="OiPHyQ5rAF06rbVgizBV-54" style="edgeStyle=orthogonalEdgeStyle;rounded=0;orthogonalLoop=1;jettySize=auto;html=1;entryX=0;entryY=0.5;entryDx=0;entryDy=0;" edge="1" parent="WIyWlLk6GJQsqaUBKTNV-1" source="OiPHyQ5rAF06rbVgizBV-56" target="OiPHyQ5rAF06rbVgizBV-52">
          <mxGeometry relative="1" as="geometry" />
        </mxCell>
        <mxCell id="OiPHyQ5rAF06rbVgizBV-55" style="edgeStyle=orthogonalEdgeStyle;rounded=0;orthogonalLoop=1;jettySize=auto;html=1;entryX=0;entryY=0.5;entryDx=0;entryDy=0;endArrow=classicThin;endFill=1;" edge="1" parent="WIyWlLk6GJQsqaUBKTNV-1" source="OiPHyQ5rAF06rbVgizBV-56" target="OiPHyQ5rAF06rbVgizBV-65">
          <mxGeometry relative="1" as="geometry">
            <Array as="points">
              <mxPoint x="92" y="774" />
            </Array>
          </mxGeometry>
        </mxCell>
        <mxCell id="OiPHyQ5rAF06rbVgizBV-56" value="被测程序" style="shape=card;whiteSpace=wrap;html=1;" vertex="1" parent="WIyWlLk6GJQsqaUBKTNV-1">
          <mxGeometry x="80" y="553.5" width="80" height="71" as="geometry" />
        </mxCell>
        <mxCell id="OiPHyQ5rAF06rbVgizBV-57" value="" style="edgeStyle=orthogonalEdgeStyle;rounded=0;orthogonalLoop=1;jettySize=auto;html=1;" edge="1" parent="WIyWlLk6GJQsqaUBKTNV-1" source="OiPHyQ5rAF06rbVgizBV-58" target="OiPHyQ5rAF06rbVgizBV-60">
          <mxGeometry relative="1" as="geometry" />
        </mxCell>
        <mxCell id="OiPHyQ5rAF06rbVgizBV-58" value="&lt;span style=&quot;font-size: 17px&quot;&gt;阶段协调器&lt;/span&gt;" style="rounded=1;whiteSpace=wrap;html=1;fillColor=#fff2cc;strokeColor=#d6b656;" vertex="1" parent="WIyWlLk6GJQsqaUBKTNV-1">
          <mxGeometry x="112" y="669" width="120" height="50" as="geometry" />
        </mxCell>
        <mxCell id="OiPHyQ5rAF06rbVgizBV-59" value="" style="edgeStyle=orthogonalEdgeStyle;rounded=0;orthogonalLoop=1;jettySize=auto;html=1;" edge="1" parent="WIyWlLk6GJQsqaUBKTNV-1" source="OiPHyQ5rAF06rbVgizBV-60" target="OiPHyQ5rAF06rbVgizBV-62">
          <mxGeometry relative="1" as="geometry" />
        </mxCell>
        <mxCell id="OiPHyQ5rAF06rbVgizBV-60" value="&lt;span style=&quot;font-size: 17px&quot;&gt;种子选择器&lt;/span&gt;" style="rounded=1;whiteSpace=wrap;html=1;fillColor=#fff2cc;strokeColor=#d6b656;" vertex="1" parent="WIyWlLk6GJQsqaUBKTNV-1">
          <mxGeometry x="272" y="669" width="110" height="50" as="geometry" />
        </mxCell>
        <mxCell id="OiPHyQ5rAF06rbVgizBV-61" value="" style="edgeStyle=orthogonalEdgeStyle;rounded=0;orthogonalLoop=1;jettySize=auto;html=1;" edge="1" parent="WIyWlLk6GJQsqaUBKTNV-1" source="OiPHyQ5rAF06rbVgizBV-62" target="OiPHyQ5rAF06rbVgizBV-64">
          <mxGeometry relative="1" as="geometry" />
        </mxCell>
        <mxCell id="OiPHyQ5rAF06rbVgizBV-62" value="&lt;span style=&quot;font-size: 17px&quot;&gt;突变器&lt;/span&gt;" style="rounded=1;whiteSpace=wrap;html=1;fillColor=#fff2cc;strokeColor=#d6b656;" vertex="1" parent="WIyWlLk6GJQsqaUBKTNV-1">
          <mxGeometry x="426" y="669" width="110" height="50" as="geometry" />
        </mxCell>
        <mxCell id="OiPHyQ5rAF06rbVgizBV-63" value="" style="edgeStyle=orthogonalEdgeStyle;rounded=0;orthogonalLoop=1;jettySize=auto;html=1;" edge="1" parent="WIyWlLk6GJQsqaUBKTNV-1" source="OiPHyQ5rAF06rbVgizBV-64" target="OiPHyQ5rAF06rbVgizBV-67">
          <mxGeometry relative="1" as="geometry" />
        </mxCell>
        <mxCell id="OiPHyQ5rAF06rbVgizBV-64" value="&lt;span style=&quot;font-size: 17px&quot;&gt;执行器&lt;/span&gt;" style="rounded=1;whiteSpace=wrap;html=1;fillColor=#fff2cc;strokeColor=#d6b656;" vertex="1" parent="WIyWlLk6GJQsqaUBKTNV-1">
          <mxGeometry x="576" y="669" width="110" height="50" as="geometry" />
        </mxCell>
        <mxCell id="OiPHyQ5rAF06rbVgizBV-65" value="&lt;span style=&quot;font-size: 17px&quot;&gt;混合执行器&lt;br&gt;&lt;/span&gt;" style="rounded=1;whiteSpace=wrap;html=1;fillColor=#fff2cc;strokeColor=#d6b656;" vertex="1" parent="WIyWlLk6GJQsqaUBKTNV-1">
          <mxGeometry x="122" y="749" width="120" height="50" as="geometry" />
        </mxCell>
        <mxCell id="OiPHyQ5rAF06rbVgizBV-66" value="&lt;font style=&quot;font-size: 17px&quot;&gt;初始种子&lt;/font&gt;" style="shape=card;whiteSpace=wrap;html=1;size=20;" vertex="1" parent="WIyWlLk6GJQsqaUBKTNV-1">
          <mxGeometry x="122" y="819" width="120" height="40" as="geometry" />
        </mxCell>
        <mxCell id="OiPHyQ5rAF06rbVgizBV-67" value="&lt;span style=&quot;font-size: 17px&quot;&gt;崩溃队列&lt;br&gt;&lt;/span&gt;" style="shape=card;whiteSpace=wrap;html=1;size=20;" vertex="1" parent="WIyWlLk6GJQsqaUBKTNV-1">
          <mxGeometry x="581" y="789" width="100" height="50" as="geometry" />
        </mxCell>
        <mxCell id="OiPHyQ5rAF06rbVgizBV-68" value="" style="endArrow=classic;html=1;exitX=0;exitY=0;exitDx=55;exitDy=0;exitPerimeter=0;entryX=0.5;entryY=1;entryDx=0;entryDy=0;" edge="1" parent="WIyWlLk6GJQsqaUBKTNV-1" source="OiPHyQ5rAF06rbVgizBV-56" target="OiPHyQ5rAF06rbVgizBV-47">
          <mxGeometry width="50" height="50" relative="1" as="geometry">
            <mxPoint x="212" y="569" as="sourcePoint" />
            <mxPoint x="262" y="519" as="targetPoint" />
          </mxGeometry>
        </mxCell>
        <mxCell id="OiPHyQ5rAF06rbVgizBV-69" value="" style="endArrow=classic;html=1;exitX=0.5;exitY=1;exitDx=0;exitDy=0;exitPerimeter=0;entryX=0.5;entryY=0;entryDx=0;entryDy=0;" edge="1" parent="WIyWlLk6GJQsqaUBKTNV-1" source="OiPHyQ5rAF06rbVgizBV-50" target="OiPHyQ5rAF06rbVgizBV-52">
          <mxGeometry width="50" height="50" relative="1" as="geometry">
            <mxPoint x="482" y="599" as="sourcePoint" />
            <mxPoint x="532" y="549" as="targetPoint" />
          </mxGeometry>
        </mxCell>
        <mxCell id="OiPHyQ5rAF06rbVgizBV-70" value="" style="endArrow=classic;html=1;exitX=0.5;exitY=1;exitDx=0;exitDy=0;exitPerimeter=0;" edge="1" parent="WIyWlLk6GJQsqaUBKTNV-1" source="OiPHyQ5rAF06rbVgizBV-53">
          <mxGeometry width="50" height="50" relative="1" as="geometry">
            <mxPoint x="612" y="689" as="sourcePoint" />
            <mxPoint x="622" y="669" as="targetPoint" />
          </mxGeometry>
        </mxCell>
        <mxCell id="OiPHyQ5rAF06rbVgizBV-71" value="&lt;span style=&quot;font-size: 16px&quot;&gt;导向种子队列&lt;/span&gt;" style="rounded=0;whiteSpace=wrap;html=1;fillColor=#f8cecc;strokeColor=#b85450;" vertex="1" parent="WIyWlLk6GJQsqaUBKTNV-1">
          <mxGeometry x="312" y="779" width="170" height="40" as="geometry" />
        </mxCell>
        <mxCell id="OiPHyQ5rAF06rbVgizBV-72" value="&lt;span&gt;&lt;font style=&quot;font-size: 16px&quot;&gt;覆盖种子队列&lt;/font&gt;&lt;/span&gt;" style="rounded=0;whiteSpace=wrap;html=1;fillColor=#e1d5e7;strokeColor=#9673a6;" vertex="1" parent="WIyWlLk6GJQsqaUBKTNV-1">
          <mxGeometry x="312" y="819" width="170" height="40" as="geometry" />
        </mxCell>
        <mxCell id="OiPHyQ5rAF06rbVgizBV-73" value="" style="endArrow=classic;html=1;exitX=0.5;exitY=1;exitDx=0;exitDy=0;entryX=1;entryY=0.5;entryDx=0;entryDy=0;strokeColor=#FF3333;" edge="1" parent="WIyWlLk6GJQsqaUBKTNV-1" source="OiPHyQ5rAF06rbVgizBV-64" target="OiPHyQ5rAF06rbVgizBV-71">
          <mxGeometry width="50" height="50" relative="1" as="geometry">
            <mxPoint x="452" y="989" as="sourcePoint" />
            <mxPoint x="502" y="939" as="targetPoint" />
          </mxGeometry>
        </mxCell>
        <mxCell id="OiPHyQ5rAF06rbVgizBV-74" value="" style="endArrow=classic;html=1;exitX=0.5;exitY=1;exitDx=0;exitDy=0;entryX=1;entryY=0.5;entryDx=0;entryDy=0;strokeColor=#FF3333;" edge="1" parent="WIyWlLk6GJQsqaUBKTNV-1" source="OiPHyQ5rAF06rbVgizBV-64" target="OiPHyQ5rAF06rbVgizBV-72">
          <mxGeometry width="50" height="50" relative="1" as="geometry">
            <mxPoint x="452" y="999" as="sourcePoint" />
            <mxPoint x="502" y="949" as="targetPoint" />
          </mxGeometry>
        </mxCell>
        <mxCell id="OiPHyQ5rAF06rbVgizBV-75" value="" style="endArrow=classic;startArrow=classic;html=1;exitX=1;exitY=0.5;exitDx=0;exitDy=0;entryX=0;entryY=0.5;entryDx=0;entryDy=0;strokeColor=#FF3333;" edge="1" parent="WIyWlLk6GJQsqaUBKTNV-1" source="OiPHyQ5rAF06rbVgizBV-65" target="OiPHyQ5rAF06rbVgizBV-71">
          <mxGeometry width="50" height="50" relative="1" as="geometry">
            <mxPoint x="332" y="969" as="sourcePoint" />
            <mxPoint x="382" y="919" as="targetPoint" />
          </mxGeometry>
        </mxCell>
        <mxCell id="OiPHyQ5rAF06rbVgizBV-76" value="" style="endArrow=classic;html=1;exitX=1;exitY=0.5;exitDx=0;exitDy=0;exitPerimeter=0;" edge="1" parent="WIyWlLk6GJQsqaUBKTNV-1" source="OiPHyQ5rAF06rbVgizBV-66">
          <mxGeometry width="50" height="50" relative="1" as="geometry">
            <mxPoint x="222" y="959" as="sourcePoint" />
            <mxPoint x="312" y="839" as="targetPoint" />
          </mxGeometry>
        </mxCell>
        <mxCell id="OiPHyQ5rAF06rbVgizBV-77" value="&lt;font style=&quot;font-size: 16px&quot;&gt;CG&lt;/font&gt;" style="text;html=1;strokeColor=none;fillColor=none;align=center;verticalAlign=middle;whiteSpace=wrap;rounded=0;" vertex="1" parent="WIyWlLk6GJQsqaUBKTNV-1">
          <mxGeometry x="332" y="454" width="40" height="20" as="geometry" />
        </mxCell>
        <mxCell id="OiPHyQ5rAF06rbVgizBV-78" value="&lt;span style=&quot;color: rgb(0 , 0 , 0) ; font-family: &amp;#34;helvetica&amp;#34; ; font-size: 16px ; font-style: normal ; font-weight: 400 ; letter-spacing: normal ; text-align: center ; text-indent: 0px ; text-transform: none ; word-spacing: 0px ; background-color: rgb(248 , 249 , 250) ; display: inline ; float: none&quot;&gt;CFG&lt;/span&gt;" style="text;whiteSpace=wrap;html=1;" vertex="1" parent="WIyWlLk6GJQsqaUBKTNV-1">
          <mxGeometry x="332" y="479" width="50" height="30" as="geometry" />
        </mxCell>
        <mxCell id="OiPHyQ5rAF06rbVgizBV-79" value="&lt;font style=&quot;font-size: 14px&quot;&gt;阶段&lt;/font&gt;" style="text;html=1;strokeColor=none;fillColor=none;align=center;verticalAlign=middle;whiteSpace=wrap;rounded=0;" vertex="1" parent="WIyWlLk6GJQsqaUBKTNV-1">
          <mxGeometry x="232" y="669" width="40" height="20" as="geometry" />
        </mxCell>
        <mxCell id="OiPHyQ5rAF06rbVgizBV-80" value="&lt;font style=&quot;font-size: 14px&quot;&gt;种子&lt;/font&gt;" style="text;html=1;strokeColor=none;fillColor=none;align=center;verticalAlign=middle;whiteSpace=wrap;rounded=0;" vertex="1" parent="WIyWlLk6GJQsqaUBKTNV-1">
          <mxGeometry x="382" y="669" width="40" height="20" as="geometry" />
        </mxCell>
        <mxCell id="OiPHyQ5rAF06rbVgizBV-81" value="&lt;font style=&quot;font-size: 14px&quot;&gt;输入&lt;/font&gt;" style="text;html=1;strokeColor=none;fillColor=none;align=center;verticalAlign=middle;whiteSpace=wrap;rounded=0;" vertex="1" parent="WIyWlLk6GJQsqaUBKTNV-1">
          <mxGeometry x="536" y="669" width="40" height="20" as="geometry" />
        </mxCell>
        <mxCell id="OiPHyQ5rAF06rbVgizBV-82" value="&lt;font style=&quot;font-size: 18px&quot;&gt;&lt;b&gt;模糊器&lt;/b&gt;&lt;/font&gt;" style="text;html=1;strokeColor=none;fillColor=none;align=center;verticalAlign=middle;whiteSpace=wrap;rounded=0;dashed=1;" vertex="1" parent="WIyWlLk6GJQsqaUBKTNV-1">
          <mxGeometry x="142" y="649" width="75" height="20" as="geometry" />
        </mxCell>
        <mxCell id="OiPHyQ5rAF06rbVgizBV-83" value="&lt;span style=&quot;color: rgb(0 , 0 , 0) ; font-family: &amp;#34;helvetica&amp;#34; ; font-size: 15px ; font-style: normal ; letter-spacing: normal ; text-align: center ; text-indent: 0px ; text-transform: none ; word-spacing: 0px ; background-color: rgb(248 , 249 , 250) ; display: inline ; float: none&quot;&gt;&lt;b&gt;种子队列&lt;/b&gt;&lt;/span&gt;" style="text;whiteSpace=wrap;html=1;" vertex="1" parent="WIyWlLk6GJQsqaUBKTNV-1">
          <mxGeometry x="347" y="749" width="110" height="30" as="geometry" />
        </mxCell>
        <mxCell id="OiPHyQ5rAF06rbVgizBV-84" value="" style="endArrow=classic;html=1;strokeColor=#FF3333;entryX=0.5;entryY=1;entryDx=0;entryDy=0;exitX=0.5;exitY=0;exitDx=0;exitDy=0;" edge="1" parent="WIyWlLk6GJQsqaUBKTNV-1" source="OiPHyQ5rAF06rbVgizBV-83" target="OiPHyQ5rAF06rbVgizBV-60">
          <mxGeometry width="50" height="50" relative="1" as="geometry">
            <mxPoint x="252" y="999" as="sourcePoint" />
            <mxPoint x="302" y="949" as="targetPoint" />
          </mxGeometry>
        </mxCell>
        <mxCell id="OiPHyQ5rAF06rbVgizBV-85" value="" style="endArrow=classic;startArrow=classic;html=1;exitX=1;exitY=0.5;exitDx=0;exitDy=0;strokeColor=#FF3333;" edge="1" parent="WIyWlLk6GJQsqaUBKTNV-1" source="OiPHyQ5rAF06rbVgizBV-65">
          <mxGeometry width="50" height="50" relative="1" as="geometry">
            <mxPoint x="262" y="879" as="sourcePoint" />
            <mxPoint x="312" y="829" as="targetPoint" />
          </mxGeometry>
        </mxCell>
      </root>
    </mxGraphModel>
  </diagram>
</mxfile>
